# xmcd
#
# Track frame offsets:
#	150
#	12890
#	28689
#	42797
#	64565
#	84889
#	95525
#	109573
#	120090
#	142015
#	158550
#	189998
#
# Disc length: 2892 seconds
#
# Revision: 0
# Processed by: cddbd v1.5.2PL0 Copyright (c) Steve Scherf et al.
# Submitted via: dBpowerAMP V4.0
#
DISCID=820b4a0c
DTITLE=Eli Cook - Miss Blues' Child
DYEAR=2005
DGENRE=Blues 
TTITLE0=Terraplane Blues
TTITLE1=Don't Ride My Pony
TTITLE2=Anything You Say
TTITLE3=Irene
TTITLE4=Miss Blues'es Child
TTITLE5=Grinnin' in Your Face
TTITLE6=Goin Down South
TTITLE7=Baby What You Want Me to Do
TTITLE8=Highway Song
TTITLE9=Poor Black Maddie
TTITLE10=Trick Bag
TTITLE11=Fixin' to Die
EXTD=Eli Cook\nCD Baby
EXTT0=
EXTT1=
EXTT2=
EXTT3=
EXTT4=
EXTT5=
EXTT6=
EXTT7=
EXTT8=
EXTT9=
EXTT10=
EXTT11=
PLAYORDER=
